<?xml version="1.0" encoding="UTF-8"?>
<!DOCTYPE svg PUBLIC "-//W3C//DTD SVG 1.1//EN" "http://www.w3.org/Graphics/SVG/1.1/DTD/svg11.dtd">
<svg xmlns="http://www.w3.org/2000/svg" version="1.1" width="343px" height="343px" style="shape-rendering:geometricPrecision; text-rendering:geometricPrecision; image-rendering:optimizeQuality; fill-rule:evenodd; clip-rule:evenodd" xmlns:xlink="http://www.w3.org/1999/xlink">
<g><path style="opacity:1" fill="#fbfafe" d="M -0.5,-0.5 C 113.833,-0.5 228.167,-0.5 342.5,-0.5C 342.5,113.833 342.5,228.167 342.5,342.5C 228.167,342.5 113.833,342.5 -0.5,342.5C -0.5,228.167 -0.5,113.833 -0.5,-0.5 Z"/></g>
<g><path style="opacity:1" fill="#7a4c46" d="M 161.5,66.5 C 169.014,66.1221 170.514,69.1221 166,75.5C 164.736,77.607 162.903,78.607 160.5,78.5C 160.237,74.3998 160.57,70.3998 161.5,66.5 Z"/></g>
<g><path style="opacity:1" fill="#844437" d="M 177.5,80.5 C 179.5,80.5 181.5,80.5 183.5,80.5C 183.33,81.8221 183.663,82.9887 184.5,84C 186.5,84.6667 188.5,84.6667 190.5,84C 194.16,79.2826 197.66,79.4493 201,84.5C 202.047,87.0385 202.547,89.7052 202.5,92.5C 202.165,96.5067 201.832,100.507 201.5,104.5C 200.448,104.351 199.448,104.517 198.5,105C 199.016,107.033 198.35,107.033 196.5,105C 197.348,101.744 198.015,98.411 198.5,95C 198.299,92.8886 197.633,91.0552 196.5,89.5C 195.5,89.5 194.5,89.5 193.5,89.5C 192.504,89.4142 191.671,89.7476 191,90.5C 189.154,93.5687 188.154,96.9021 188,100.5C 186.989,101.337 185.822,101.67 184.5,101.5C 184.666,96.8215 184.499,92.1548 184,87.5C 182,86.8333 180,86.1667 178,85.5C 177.506,83.8659 177.34,82.1992 177.5,80.5 Z"/></g>
<g><path style="opacity:1" fill="#854238" d="M 241.5,87.5 C 241.824,91.5546 241.491,95.5546 240.5,99.5C 239.8,95.959 239.133,92.459 238.5,89C 232.639,86.3741 227.473,87.2074 223,91.5C 222.667,96.5 222.333,101.5 222,106.5C 217.269,103.103 215.435,98.4365 216.5,92.5C 217.782,89.3832 219.949,87.0499 223,85.5C 223.483,84.552 223.649,83.552 223.5,82.5C 228.58,82.2497 233.58,82.7497 238.5,84C 239.163,85.5185 240.163,86.6851 241.5,87.5 Z"/></g>
<g><path style="opacity:1" fill="#794a41" d="M 177.5,80.5 C 177.34,82.1992 177.506,83.8659 178,85.5C 180,86.1667 182,86.8333 184,87.5C 184.499,92.1548 184.666,96.8215 184.5,101.5C 185.822,101.67 186.989,101.337 188,100.5C 188.154,96.9021 189.154,93.5687 191,90.5C 191.671,89.7476 192.504,89.4142 193.5,89.5C 190.966,94.4802 188.966,99.6469 187.5,105C 185.633,105.711 184.133,105.211 183,103.5C 182.667,99.1667 182.333,94.8333 182,90.5C 180.747,86.9561 178.913,86.6228 176.5,89.5C 175.671,94.4671 175.171,99.4671 175,104.5C 172.782,106.619 170.282,106.952 167.5,105.5C 166.593,98.1668 166.093,90.8334 166,83.5C 168.12,80.9199 170.287,80.9199 172.5,83.5C 173.94,82.0476 175.606,81.0476 177.5,80.5 Z"/></g>
<g><path style="opacity:1" fill="#7e463e" d="M 261.5,119.5 C 263.546,122.784 263.879,126.117 262.5,129.5C 262.516,131.484 261.516,132.484 259.5,132.5C 257.927,132.248 256.594,131.582 255.5,130.5C 255.029,128.421 254.363,126.421 253.5,124.5C 252.956,120.327 251.79,116.327 250,112.5C 249.722,113.416 249.222,114.082 248.5,114.5C 246.743,115.292 245.409,116.625 244.5,118.5C 242.955,119.452 241.288,119.785 239.5,119.5C 239.5,116.833 239.5,114.167 239.5,111.5C 241.234,107.7 243.234,104.034 245.5,100.5C 248.695,94.6126 252.028,88.7793 255.5,83C 261.667,81.1667 263.833,83.3333 262,89.5C 260.007,91.8175 258.841,94.4842 258.5,97.5C 264.444,96.1979 270.444,95.6979 276.5,96C 279.091,99.2972 279.091,102.631 276.5,106C 270.175,106.5 263.842,106.666 257.5,106.5C 258.449,111.009 259.782,115.342 261.5,119.5 Z"/></g>
<g><path style="opacity:1" fill="#764e47" d="M 244.5,99.5 C 243.833,100.167 243.167,100.833 242.5,101.5C 242.819,96.6367 242.486,91.97 241.5,87.5C 240.163,86.6851 239.163,85.5185 238.5,84C 233.58,82.7497 228.58,82.2497 223.5,82.5C 223.649,83.552 223.483,84.552 223,85.5C 219.949,87.0499 217.782,89.3832 216.5,92.5C 215.518,95.9619 215.185,99.6286 215.5,103.5C 211.668,93.8343 214.335,86.3343 223.5,81C 238.589,78.2647 245.589,84.4314 244.5,99.5 Z"/></g>
<g><path style="opacity:1" fill="#734c48" d="M 174.5,129.5 C 182.191,133.685 188.858,139.185 194.5,146C 202.58,146.05 210.247,147.55 217.5,150.5C 217.443,151.609 217.11,152.609 216.5,153.5C 210.332,151.035 203.998,150.035 197.5,150.5C 200.138,154.135 200.971,158.135 200,162.5C 186.92,135.708 165.42,124.875 135.5,130C 114.645,134.521 101.145,147.021 95,167.5C 85.5925,173.721 79.0925,182.054 75.5,192.5C 75.62,195.064 76.9533,196.564 79.5,197C 87.1384,197.976 94.8051,198.643 102.5,199C 102.957,199.414 103.291,199.914 103.5,200.5C 101.744,202.191 101.244,204.191 102,206.5C 105.385,214.052 110.885,219.385 118.5,222.5C 129.316,228.614 140.982,230.78 153.5,229C 159.387,223.908 165.387,219.074 171.5,214.5C 179.099,209.427 187.099,204.927 195.5,201C 197.579,200.192 199.579,200.359 201.5,201.5C 182.64,211.097 165.306,222.93 149.5,237C 146.833,238 144.167,239 141.5,240C 139.789,241.133 139.289,242.633 140,244.5C 141.5,243 143,241.5 144.5,240C 145.332,239.312 145.998,239.479 146.5,240.5C 144.902,242.698 143.569,245.031 142.5,247.5C 141.609,248.11 140.609,248.443 139.5,248.5C 138.542,248.047 137.708,247.381 137,246.5C 136.503,244.19 136.337,241.857 136.5,239.5C 136.328,238.508 136.662,237.842 137.5,237.5C 140.852,237.216 143.852,236.05 146.5,234C 129.651,233.232 115.317,227.065 103.5,215.5C 100.986,211.806 98.9861,207.806 97.5,203.5C 94.2121,202.555 90.8788,201.888 87.5,201.5C 82.2959,201.386 77.4626,200.053 73,197.5C 72.3804,190.203 74.547,183.703 79.5,178C 77.8455,177.392 76.1789,176.892 74.5,176.5C 68.3723,174.134 62.3723,171.467 56.5,168.5C 65.1888,168.943 73.5222,171.277 81.5,175.5C 84.1849,171.817 87.5182,168.817 91.5,166.5C 95.053,157.726 99.3863,149.393 104.5,141.5C 103.907,134.835 103.24,128.169 102.5,121.5C 96.2692,118.098 94.9359,113.265 98.5,107C 93.2309,102.505 93.2309,97.8387 98.5,93C 102.459,92.212 104.292,89.712 104,85.5C 106.072,80.8567 109.572,79.3567 114.5,81C 115.787,82.4095 116.954,83.9095 118,85.5C 121.204,82.887 124.37,82.887 127.5,85.5C 128.363,101.236 134.697,114.402 146.5,125C 156.085,125.098 165.419,126.598 174.5,129.5 Z"/></g>
<g><path style="opacity:1" fill="#f9f5f6" d="M 109.5,83.5 C 111.39,83.2965 112.89,83.9632 114,85.5C 114.977,87.74 115.477,90.0733 115.5,92.5C 116.5,92.5 117.5,92.5 118.5,92.5C 118.305,87.5143 120.472,85.8476 125,87.5C 124.892,91.1568 124.892,94.8235 125,98.5C 129.173,107.337 134.173,115.671 140,123.5C 140.688,124.332 140.521,124.998 139.5,125.5C 127.62,127.178 117.12,131.844 108,139.5C 106.59,133.509 106.423,127.509 107.5,121.5C 108.5,121.167 109.167,120.5 109.5,119.5C 102.906,119.9 99.5731,116.9 99.5,110.5C 103.589,112.429 107.089,111.762 110,108.5C 110.896,105.975 110.396,103.808 108.5,102C 105.582,101.284 102.915,101.784 100.5,103.5C 98.7336,103.566 97.7336,102.732 97.5,101C 97.9903,99.018 98.9903,97.3513 100.5,96C 103.553,95.8214 106.553,95.3214 109.5,94.5C 105.731,90.9394 105.731,87.2728 109.5,83.5 Z"/></g>
<g><path style="opacity:1" fill="#794d45" d="M 196.5,89.5 C 197.633,91.0552 198.299,92.8886 198.5,95C 198.015,98.411 197.348,101.744 196.5,105C 198.35,107.033 199.016,107.033 198.5,105C 199.448,104.517 200.448,104.351 201.5,104.5C 201.832,100.507 202.165,96.5067 202.5,92.5C 202.547,89.7052 202.047,87.0385 201,84.5C 197.66,79.4493 194.16,79.2826 190.5,84C 188.5,84.6667 186.5,84.6667 184.5,84C 183.663,82.9887 183.33,81.8221 183.5,80.5C 181.5,80.5 179.5,80.5 177.5,80.5C 181.938,77.5318 185.605,78.5318 188.5,83.5C 193.736,77.956 198.57,78.2893 203,84.5C 205.224,92.3656 204.724,100.032 201.5,107.5C 197.419,110.627 195.086,109.627 194.5,104.5C 195.905,99.5958 196.571,94.5958 196.5,89.5 Z"/></g>
<g><path style="opacity:1" fill="#7f4b42" d="M 241.5,87.5 C 242.486,91.97 242.819,96.6367 242.5,101.5C 239.771,106.562 235.771,110.229 230.5,112.5C 223.074,113.296 218.074,110.296 215.5,103.5C 215.185,99.6286 215.518,95.9619 216.5,92.5C 215.435,98.4365 217.269,103.103 222,106.5C 222.333,101.5 222.667,96.5 223,91.5C 227.473,87.2074 232.639,86.3741 238.5,89C 239.133,92.459 239.8,95.959 240.5,99.5C 241.491,95.5546 241.824,91.5546 241.5,87.5 Z"/></g>
<g><path style="opacity:1" fill="#faf7f5" d="M 229.5,88.5 C 235.997,88.1799 238.164,91.1799 236,97.5C 233.791,102.685 229.958,104.851 224.5,104C 222.275,97.5089 223.942,92.3422 229.5,88.5 Z"/></g>
<g><path style="opacity:1" fill="#f1d6c8" d="M 105.5,104.5 C 106.478,104.811 107.145,105.478 107.5,106.5C 102.275,108.059 101.608,107.392 105.5,104.5 Z"/></g>
<g><path style="opacity:1" fill="#7b4840" d="M 141.5,67.5 C 145.226,67.1774 148.893,67.5108 152.5,68.5C 154.175,72.4814 152.841,74.4814 148.5,74.5C 150.313,83.4217 151.646,92.4217 152.5,101.5C 158.352,100.63 160.852,102.963 160,108.5C 159.25,109.126 158.416,109.626 157.5,110C 151.825,110.699 146.158,111.032 140.5,111C 139.151,106.156 141.151,103.656 146.5,103.5C 145.819,94.0667 144.486,84.7334 142.5,75.5C 140.143,75.6633 137.81,75.4966 135.5,75C 134.167,73.3333 134.167,71.6667 135.5,70C 137.723,69.4338 139.723,68.6005 141.5,67.5 Z"/></g>
<g><path style="opacity:1" fill="#874234" d="M 262.5,129.5 C 260.856,129.714 259.356,129.38 258,128.5C 257.728,123.623 256.061,119.29 253,115.5C 252.667,112.833 252.333,110.167 252,107.5C 250.989,106.663 249.822,106.33 248.5,106.5C 248.577,102.854 249.577,99.5206 251.5,96.5C 252.852,97.5175 253.852,98.8508 254.5,100.5C 257.167,99.8333 259.833,99.1667 262.5,98.5C 266.429,99.4328 270.429,99.7662 274.5,99.5C 274.67,100.822 274.337,101.989 273.5,103C 267.509,103.499 261.509,103.666 255.5,103.5C 255.716,108.601 256.55,113.601 258,118.5C 261.338,121.333 262.838,125 262.5,129.5 Z"/></g>
<g><path style="opacity:1" fill="#754c48" d="M 292.5,118.5 C 293.397,113.728 291.397,111.395 286.5,111.5C 284.393,113.53 282.393,115.697 280.5,118C 279.552,118.483 278.552,118.649 277.5,118.5C 277.833,117.833 278.167,117.167 278.5,116.5C 280.63,114.873 282.63,113.04 284.5,111C 288.274,109.817 291.441,110.651 294,113.5C 294.599,115.535 294.099,117.201 292.5,118.5 Z"/></g>
<g><path style="opacity:1" fill="#76564e" d="M 239.5,111.5 C 239.5,114.167 239.5,116.833 239.5,119.5C 241.288,119.785 242.955,119.452 244.5,118.5C 245.409,116.625 246.743,115.292 248.5,114.5C 247.535,119.647 244.535,121.814 239.5,121C 237.016,117.682 237.016,114.515 239.5,111.5 Z"/></g>
<g><path style="opacity:1" fill="#f6ebe8" d="M 244.5,99.5 C 244.5,100.167 244.833,100.5 245.5,100.5C 243.234,104.034 241.234,107.7 239.5,111.5C 237.016,114.515 237.016,117.682 239.5,121C 244.535,121.814 247.535,119.647 248.5,114.5C 249.222,114.082 249.722,113.416 250,112.5C 251.79,116.327 252.956,120.327 253.5,124.5C 252.778,124.918 252.278,125.584 252,126.5C 251.122,123.743 250.122,121.076 249,118.5C 246.938,122.443 243.605,124.443 239,124.5C 235.656,120.729 234.322,116.396 235,111.5C 233.644,112.38 232.144,112.714 230.5,112.5C 235.771,110.229 239.771,106.562 242.5,101.5C 243.167,100.833 243.833,100.167 244.5,99.5 Z"/></g>
<g><path style="opacity:1" fill="#874137" d="M 292.5,118.5 C 292.5,119.167 292.167,119.5 291.5,119.5C 289.072,121.043 286.406,122.043 283.5,122.5C 282.817,126.48 280.483,127.98 276.5,127C 276.167,126.667 275.833,126.333 275.5,126C 276.397,123.913 277.064,121.746 277.5,119.5C 277.5,119.167 277.5,118.833 277.5,118.5C 278.552,118.649 279.552,118.483 280.5,118C 282.393,115.697 284.393,113.53 286.5,111.5C 291.397,111.395 293.397,113.728 292.5,118.5 Z"/></g>
<g><path style="opacity:1" fill="#7b4c46" d="M 277.5,119.5 C 277.064,121.746 276.397,123.913 275.5,126C 275.833,126.333 276.167,126.667 276.5,127C 280.483,127.98 282.817,126.48 283.5,122.5C 286.406,122.043 289.072,121.043 291.5,119.5C 287.471,124.353 282.804,128.52 277.5,132C 275.866,132.494 274.199,132.66 272.5,132.5C 272.5,134.167 272.5,135.833 272.5,137.5C 268.752,140.691 266.085,140.024 264.5,135.5C 265.469,132.013 267.802,130.68 271.5,131.5C 271.389,126.389 273.389,122.389 277.5,119.5 Z"/></g>
<g><path style="opacity:1" fill="#f8f3f3" d="M 278.5,116.5 C 278.167,117.167 277.833,117.833 277.5,118.5C 277.5,118.833 277.5,119.167 277.5,119.5C 273.389,122.389 271.389,126.389 271.5,131.5C 267.802,130.68 265.469,132.013 264.5,135.5C 266.085,140.024 268.752,140.691 272.5,137.5C 273.805,141.691 276.471,144.858 280.5,147C 279.944,147.383 279.611,147.883 279.5,148.5C 265.851,141.951 251.518,137.617 236.5,135.5C 233.205,135.295 230.205,136.128 227.5,138C 223.869,142.109 220.535,146.276 217.5,150.5C 210.247,147.55 202.58,146.05 194.5,146C 188.858,139.185 182.191,133.685 174.5,129.5C 176.55,129.039 178.55,128.372 180.5,127.5C 181.799,128.09 182.632,129.09 183,130.5C 183.333,130.167 183.667,129.833 184,129.5C 185.381,131.635 186.381,133.968 187,136.5C 190.112,137.518 192.612,139.352 194.5,142C 198.492,143.177 200.158,141.677 199.5,137.5C 206.338,136.832 212.838,137.832 219,140.5C 221.362,139.648 223.195,138.148 224.5,136C 234.559,133.125 244.559,132.791 254.5,135C 255.38,133.644 255.714,132.144 255.5,130.5C 256.594,131.582 257.927,132.248 259.5,132.5C 261.516,132.484 262.516,131.484 262.5,129.5C 263.879,126.117 263.546,122.784 261.5,119.5C 262.5,119.5 263.5,119.5 264.5,119.5C 264.5,122.167 264.5,124.833 264.5,127.5C 266.912,127.244 268.579,128.244 269.5,130.5C 269.387,124.887 271.72,120.72 276.5,118C 276.167,117.667 275.833,117.333 275.5,117C 276.448,116.517 277.448,116.351 278.5,116.5 Z"/></g>
<g><path style="opacity:1" fill="#f9f8fc" d="M 216.5,153.5 C 239.692,164.367 254.025,182.367 259.5,207.5C 259.196,208.15 258.863,208.817 258.5,209.5C 259.752,216.11 260.252,222.777 260,229.5C 258.103,231.016 255.936,231.683 253.5,231.5C 247.65,229.728 241.983,227.728 236.5,225.5C 245.589,226.294 246.589,224.128 239.5,219C 226.735,217.549 216.402,221.883 208.5,232C 210.886,232.284 211.552,233.284 210.5,235C 208.167,235.333 205.833,235.667 203.5,236C 199.957,238.968 196.291,241.468 192.5,243.5C 180.892,247.369 169.226,251.036 157.5,254.5C 157.516,248.178 156.183,247.845 153.5,253.5C 151.926,254.631 150.259,254.798 148.5,254C 147.589,250.935 147.589,248.102 148.5,245.5C 146.5,246.833 144.833,248.5 143.5,250.5C 142.614,249.675 142.281,248.675 142.5,247.5C 143.569,245.031 144.902,242.698 146.5,240.5C 145.998,239.479 145.332,239.312 144.5,240C 143,241.5 141.5,243 140,244.5C 139.289,242.633 139.789,241.133 141.5,240C 144.167,239 146.833,238 149.5,237C 165.306,222.93 182.64,211.097 201.5,201.5C 199.579,200.359 197.579,200.192 195.5,201C 187.099,204.927 179.099,209.427 171.5,214.5C 170.167,214.5 168.833,214.5 167.5,214.5C 166.85,214.196 166.183,213.863 165.5,213.5C 155.551,217.437 145.218,219.771 134.5,220.5C 125.787,221.446 122.287,217.779 124,209.5C 125.556,204.327 127.389,199.327 129.5,194.5C 126.279,196.196 123.946,198.863 122.5,202.5C 121.25,202.577 120.417,203.244 120,204.5C 119.667,204.167 119.333,203.833 119,203.5C 118.833,206.333 118.667,209.167 118.5,212C 118.595,215.364 119.262,218.531 120.5,221.5C 120.043,222.298 119.376,222.631 118.5,222.5C 110.885,219.385 105.385,214.052 102,206.5C 101.244,204.191 101.744,202.191 103.5,200.5C 103.291,199.914 102.957,199.414 102.5,199C 94.8051,198.643 87.1384,197.976 79.5,197C 76.9533,196.564 75.62,195.064 75.5,192.5C 79.0925,182.054 85.5925,173.721 95,167.5C 101.145,147.021 114.645,134.521 135.5,130C 165.42,124.875 186.92,135.708 200,162.5C 200.971,158.135 200.138,154.135 197.5,150.5C 203.998,150.035 210.332,151.035 216.5,153.5 Z"/></g>
<g><path style="opacity:1" fill="#a48079" d="M 269.5,237.5 C 266.916,236.952 265.916,235.285 266.5,232.5C 266.666,226.824 266.499,221.157 266,215.5C 262.357,203.423 263.19,191.757 268.5,180.5C 269.707,183.941 269.707,187.441 268.5,191C 270.844,197.685 272.678,204.519 274,211.5C 276.042,205.784 275.875,200.117 273.5,194.5C 273.925,192.62 274.925,191.12 276.5,190C 275.239,184.841 275.239,179.675 276.5,174.5C 277.086,174.709 277.586,175.043 278,175.5C 278.182,178.226 278.682,180.893 279.5,183.5C 281.069,182.286 281.902,180.619 282,178.5C 282.478,173.132 282.145,167.799 281,162.5C 278.915,164.082 277.415,166.082 276.5,168.5C 274.916,164.739 275.416,161.406 278,158.5C 278.667,156.833 278.667,155.167 278,153.5C 274.509,152.957 271.175,151.957 268,150.5C 267.055,150.905 266.388,151.572 266,152.5C 263.218,150.989 261.385,151.822 260.5,155C 262.123,155.611 263.956,156.777 266,158.5C 268.532,162.728 270.365,167.228 271.5,172C 271.613,173.699 270.947,174.866 269.5,175.5C 270.419,168.677 268.085,163.343 262.5,159.5C 254.838,155.335 246.671,152.668 238,151.5C 236.439,151.603 234.939,151.937 233.5,152.5C 232.852,154.149 231.852,155.482 230.5,156.5C 227.921,155.294 225.421,153.961 223,152.5C 222.797,150.609 223.297,148.943 224.5,147.5C 225.687,142.814 228.687,139.981 233.5,139C 235.833,138.333 238.167,138.333 240.5,139C 250.356,141.064 260.023,143.731 269.5,147C 274.545,149.05 278.712,152.216 282,156.5C 283.568,164.421 283.901,172.421 283,180.5C 279.069,199.657 274.569,218.657 269.5,237.5 Z"/></g>
<g><path style="opacity:1" fill="#764841" d="M 279.5,148.5 C 285.178,154.015 287.845,160.849 287.5,169C 284.604,192.21 279.938,215.043 273.5,237.5C 272.844,238.278 272.011,238.944 271,239.5C 269.97,239.164 269.47,238.497 269.5,237.5C 274.569,218.657 279.069,199.657 283,180.5C 283.901,172.421 283.568,164.421 282,156.5C 278.712,152.216 274.545,149.05 269.5,147C 260.023,143.731 250.356,141.064 240.5,139C 238.167,138.333 235.833,138.333 233.5,139C 228.687,139.981 225.687,142.814 224.5,147.5C 223.297,148.943 222.797,150.609 223,152.5C 225.421,153.961 227.921,155.294 230.5,156.5C 231.852,155.482 232.852,154.149 233.5,152.5C 234.939,151.937 236.439,151.603 238,151.5C 246.671,152.668 254.838,155.335 262.5,159.5C 268.085,163.343 270.419,168.677 269.5,175.5C 268.549,176.919 268.216,178.585 268.5,180.5C 263.19,191.757 262.357,203.423 266,215.5C 266.499,221.157 266.666,226.824 266.5,232.5C 264.493,236.515 263.16,236.182 262.5,231.5C 262.392,224.476 261.892,217.476 261,210.5C 260.768,209.263 260.268,208.263 259.5,207.5C 254.025,182.367 239.692,164.367 216.5,153.5C 217.11,152.609 217.443,151.609 217.5,150.5C 220.535,146.276 223.869,142.109 227.5,138C 230.205,136.128 233.205,135.295 236.5,135.5C 251.518,137.617 265.851,141.951 279.5,148.5 Z"/></g>
<g><path style="opacity:1" fill="#9f837b" d="M 268.5,180.5 C 268.216,178.585 268.549,176.919 269.5,175.5C 270.947,174.866 271.613,173.699 271.5,172C 270.365,167.228 268.532,162.728 266,158.5C 263.956,156.777 262.123,155.611 260.5,155C 261.385,151.822 263.218,150.989 266,152.5C 266.388,151.572 267.055,150.905 268,150.5C 271.175,151.957 274.509,152.957 278,153.5C 278.667,155.167 278.667,156.833 278,158.5C 275.416,161.406 274.916,164.739 276.5,168.5C 277.415,166.082 278.915,164.082 281,162.5C 282.145,167.799 282.478,173.132 282,178.5C 281.902,180.619 281.069,182.286 279.5,183.5C 278.682,180.893 278.182,178.226 278,175.5C 277.586,175.043 277.086,174.709 276.5,174.5C 275.239,179.675 275.239,184.841 276.5,190C 274.925,191.12 273.925,192.62 273.5,194.5C 275.875,200.117 276.042,205.784 274,211.5C 272.678,204.519 270.844,197.685 268.5,191C 269.707,187.441 269.707,183.941 268.5,180.5 Z"/></g>
<g><path style="opacity:1" fill="#9d837b" d="M 224.5,147.5 C 225.397,146.402 226.23,146.402 227,147.5C 229.846,142.575 234.179,140.241 240,140.5C 242.956,140.947 245.789,141.78 248.5,143C 247.259,144.487 247.759,145.32 250,145.5C 252.824,146.054 255.657,146.554 258.5,147C 260.245,148.692 260.578,150.525 259.5,152.5C 258.808,151.975 258.308,151.308 258,150.5C 257.692,151.308 257.192,151.975 256.5,152.5C 250.438,152.007 244.272,151.34 238,150.5C 233.488,150.767 228.988,151.101 224.5,151.5C 224.5,150.167 224.5,148.833 224.5,147.5 Z"/></g>
<g><path style="opacity:1" fill="#a18179" d="M 234.5,154.5 C 245.256,154.586 255.089,157.586 264,163.5C 265.701,165.9 266.534,168.567 266.5,171.5C 265.133,179.965 263.3,188.299 261,196.5C 257.859,187.544 253.193,179.544 247,172.5C 247.667,167.833 248.333,163.167 249,158.5C 247.038,161.655 245.372,164.988 244,168.5C 241.011,165.345 237.844,162.345 234.5,159.5C 233.334,157.833 233.334,156.166 234.5,154.5 Z"/></g>
<g><path style="opacity:1" fill="#e1ebed" d="M 74.5,176.5 C 76.1789,176.892 77.8455,177.392 79.5,178C 74.547,183.703 72.3804,190.203 73,197.5C 77.4626,200.053 82.2959,201.386 87.5,201.5C 88.0906,202.151 88.7573,202.818 89.5,203.5C 86.9419,206.799 84.2753,209.966 81.5,213C 80.552,213.483 79.552,213.649 78.5,213.5C 69.9161,209.87 61.5827,205.87 53.5,201.5C 54.9663,200.653 55.7996,199.32 56,197.5C 56.3333,194.833 56.6667,192.167 57,189.5C 59.3249,186.173 61.6582,182.839 64,179.5C 67.5608,178.452 71.0608,177.452 74.5,176.5 Z"/></g>
<g><path style="opacity:1" fill="#bed2d8" d="M 87.5,201.5 C 90.8788,201.888 94.2121,202.555 97.5,203.5C 98.9861,207.806 100.986,211.806 103.5,215.5C 103.539,216.583 103.873,217.583 104.5,218.5C 101.576,219.488 98.5755,220.154 95.5,220.5C 92.7961,218.65 89.7961,217.65 86.5,217.5C 83.5035,216.73 80.8368,215.396 78.5,213.5C 79.552,213.649 80.552,213.483 81.5,213C 84.2753,209.966 86.9419,206.799 89.5,203.5C 88.7573,202.818 88.0906,202.151 87.5,201.5 Z"/></g>
<g><path style="opacity:1" fill="#cac5c8" d="M 103.5,215.5 C 115.317,227.065 129.651,233.232 146.5,234C 143.852,236.05 140.852,237.216 137.5,237.5C 126.248,232.024 114.748,227.024 103,222.5C 96.5825,223.875 91.0825,222.209 86.5,217.5C 89.7961,217.65 92.7961,218.65 95.5,220.5C 98.5755,220.154 101.576,219.488 104.5,218.5C 103.873,217.583 103.539,216.583 103.5,215.5 Z"/></g>
<g><path style="opacity:1" fill="#714d4a" d="M 167.5,214.5 C 167.586,215.496 167.252,216.329 166.5,217C 153.687,222.246 140.353,224.246 126.5,223C 122.261,221.539 119.928,218.539 119.5,214C 120.061,210.018 121.061,206.185 122.5,202.5C 123.946,198.863 126.279,196.196 129.5,194.5C 127.389,199.327 125.556,204.327 124,209.5C 122.287,217.779 125.787,221.446 134.5,220.5C 145.218,219.771 155.551,217.437 165.5,213.5C 166.183,213.863 166.85,214.196 167.5,214.5 Z"/></g>
<g><path style="opacity:1" fill="#f3e7de" d="M 259.5,207.5 C 260.268,208.263 260.768,209.263 261,210.5C 261.892,217.476 262.392,224.476 262.5,231.5C 261.842,232.398 261.176,233.398 260.5,234.5C 257.984,233.67 255.65,232.67 253.5,231.5C 255.936,231.683 258.103,231.016 260,229.5C 260.252,222.777 259.752,216.11 258.5,209.5C 258.863,208.817 259.196,208.15 259.5,207.5 Z"/></g>
<g><path style="opacity:1" fill="#f1eaec" d="M 122.5,202.5 C 121.061,206.185 120.061,210.018 119.5,214C 119.928,218.539 122.261,221.539 126.5,223C 140.353,224.246 153.687,222.246 166.5,217C 167.252,216.329 167.586,215.496 167.5,214.5C 168.833,214.5 170.167,214.5 171.5,214.5C 165.387,219.074 159.387,223.908 153.5,229C 140.982,230.78 129.316,228.614 118.5,222.5C 119.376,222.631 120.043,222.298 120.5,221.5C 119.262,218.531 118.595,215.364 118.5,212C 118.667,209.167 118.833,206.333 119,203.5C 119.333,203.833 119.667,204.167 120,204.5C 120.417,203.244 121.25,202.577 122.5,202.5 Z"/></g>
<g><path style="opacity:1" fill="#eaedf3" d="M 236.5,225.5 C 229.776,228.36 223.109,231.527 216.5,235C 208.358,237.578 200.358,240.411 192.5,243.5C 196.291,241.468 199.957,238.968 203.5,236C 205.833,235.667 208.167,235.333 210.5,235C 211.552,233.284 210.886,232.284 208.5,232C 216.402,221.883 226.735,217.549 239.5,219C 246.589,224.128 245.589,226.294 236.5,225.5 Z"/></g>
<g><path style="opacity:1" fill="#c6d0d6" d="M 244.5,232.5 C 240.65,233.026 236.816,233.693 233,234.5C 231.5,236.333 230,238.167 228.5,240C 219.41,242.711 210.41,245.711 201.5,249C 203.382,249.198 205.048,249.698 206.5,250.5C 201.36,250.18 196.36,250.847 191.5,252.5C 189.098,250.951 186.432,250.284 183.5,250.5C 195.059,246.404 206.726,242.237 218.5,238C 223.659,235.588 228.659,232.921 233.5,230C 237.639,229.13 241.306,229.963 244.5,232.5 Z"/></g>
<g><path style="opacity:1" fill="#6f4b48" d="M 53.5,201.5 C 61.5827,205.87 69.9161,209.87 78.5,213.5C 80.8368,215.396 83.5035,216.73 86.5,217.5C 91.0825,222.209 96.5825,223.875 103,222.5C 114.748,227.024 126.248,232.024 137.5,237.5C 136.662,237.842 136.328,238.508 136.5,239.5C 126.981,236.406 117.981,232.24 109.5,227C 101.774,224.349 100.607,225.183 106,229.5C 106.928,233.298 108.428,236.798 110.5,240C 122.43,246.133 134.43,251.966 146.5,257.5C 144.83,254.998 142.664,252.998 140,251.5C 139.517,250.552 139.351,249.552 139.5,248.5C 140.609,248.443 141.609,248.11 142.5,247.5C 142.281,248.675 142.614,249.675 143.5,250.5C 144.833,248.5 146.5,246.833 148.5,245.5C 147.589,248.102 147.589,250.935 148.5,254C 150.259,254.798 151.926,254.631 153.5,253.5C 156.183,247.845 157.516,248.178 157.5,254.5C 169.226,251.036 180.892,247.369 192.5,243.5C 200.358,240.411 208.358,237.578 216.5,235C 223.109,231.527 229.776,228.36 236.5,225.5C 241.983,227.728 247.65,229.728 253.5,231.5C 255.65,232.67 257.984,233.67 260.5,234.5C 261.176,233.398 261.842,232.398 262.5,231.5C 263.16,236.182 264.493,236.515 266.5,232.5C 265.916,235.285 266.916,236.952 269.5,237.5C 269.47,238.497 269.97,239.164 271,239.5C 272.011,238.944 272.844,238.278 273.5,237.5C 273.62,238.586 274.287,239.253 275.5,239.5C 280.254,240.642 284.921,241.975 289.5,243.5C 289.5,244.5 289.5,245.5 289.5,246.5C 287.801,246.66 286.134,246.494 284.5,246C 271.229,241.192 257.896,236.692 244.5,232.5C 241.306,229.963 237.639,229.13 233.5,230C 228.659,232.921 223.659,235.588 218.5,238C 206.726,242.237 195.059,246.404 183.5,250.5C 176.414,250.871 171.081,254.037 167.5,260C 152.215,268.831 136.882,277.331 121.5,285.5C 115.605,286.257 110.271,284.924 105.5,281.5C 99.3851,278.055 93.0518,275.055 86.5,272.5C 76.0597,266.108 65.393,259.941 54.5,254C 52.6217,252.457 51.1217,250.624 50,248.5C 45.3947,232.907 40.5613,217.407 35.5,202C 35.9465,199.259 37.4465,197.425 40,196.5C 44.4665,198.319 48.9665,199.986 53.5,201.5 Z"/></g>
<g><path style="opacity:1" fill="#634c4d" d="M 108.5,268.5 C 106.587,257.842 103.92,247.509 100.5,237.5C 101.095,234.887 101.929,234.887 103,237.5C 106.885,249.989 110.052,262.655 112.5,275.5C 112.333,276.833 112.167,278.167 112,279.5C 111.667,279.167 111.333,278.833 111,278.5C 110.262,275.009 109.429,271.675 108.5,268.5 Z"/></g>
<g><path style="opacity:1" fill="#b9b8b9" d="M 136.5,239.5 C 136.337,241.857 136.503,244.19 137,246.5C 137.708,247.381 138.542,248.047 139.5,248.5C 139.351,249.552 139.517,250.552 140,251.5C 142.664,252.998 144.83,254.998 146.5,257.5C 134.43,251.966 122.43,246.133 110.5,240C 108.428,236.798 106.928,233.298 106,229.5C 100.607,225.183 101.774,224.349 109.5,227C 117.981,232.24 126.981,236.406 136.5,239.5 Z"/></g>
<g><path style="opacity:1" fill="#6b4745" d="M 109.5,232.5 C 118.101,235.801 126.435,239.635 134.5,244C 132.663,245.48 130.663,245.48 128.5,244C 122.621,240.894 116.621,238.06 110.5,235.5C 109.614,234.675 109.281,233.675 109.5,232.5 Z"/></g>
<g><path style="opacity:1" fill="#b2c1c5" d="M 46.5,207.5 C 63.5795,214.539 79.9129,222.872 95.5,232.5C 96.5218,234.855 98.1884,236.522 100.5,237.5C 103.92,247.509 106.587,257.842 108.5,268.5C 108.5,271.167 108.5,273.833 108.5,276.5C 105.123,276.31 102.456,274.81 100.5,272C 98.1902,271.503 95.8568,271.337 93.5,271.5C 79.7343,265.194 66.5677,257.86 54,249.5C 50.703,240.645 47.8696,231.645 45.5,222.5C 45.5666,217.364 44.9,212.364 43.5,207.5C 44.5,207.5 45.5,207.5 46.5,207.5 Z"/></g>
<g><path style="opacity:1" fill="#bcb2b0" d="M 93.5,271.5 C 95.8568,271.337 98.1902,271.503 100.5,272C 102.456,274.81 105.123,276.31 108.5,276.5C 108.5,273.833 108.5,271.167 108.5,268.5C 109.429,271.675 110.262,275.009 111,278.5C 111.333,278.833 111.667,279.167 112,279.5C 112.167,278.167 112.333,276.833 112.5,275.5C 110.052,262.655 106.885,249.989 103,237.5C 101.929,234.887 101.095,234.887 100.5,237.5C 98.1884,236.522 96.5218,234.855 95.5,232.5C 97.2259,232.815 98.8925,232.981 100.5,233C 98.792,230.957 96.792,229.29 94.5,228C 76.6691,219.782 59.0025,211.282 41.5,202.5C 41.1667,202.667 40.8333,202.833 40.5,203C 42.3893,204.764 44.3893,206.264 46.5,207.5C 45.5,207.5 44.5,207.5 43.5,207.5C 44.9,212.364 45.5666,217.364 45.5,222.5C 43.1033,215.813 40.77,208.979 38.5,202C 39.0085,200.831 39.8419,199.998 41,199.5C 61.8552,209.011 82.3552,219.178 102.5,230C 109.385,246.495 113.719,263.662 115.5,281.5C 107.54,279.538 100.206,276.205 93.5,271.5 Z"/></g>
<g><path style="opacity:1" fill="#5f4f50" d="M 95.5,232.5 C 79.9129,222.872 63.5795,214.539 46.5,207.5C 44.3893,206.264 42.3893,204.764 40.5,203C 40.8333,202.833 41.1667,202.667 41.5,202.5C 59.0025,211.282 76.6691,219.782 94.5,228C 96.792,229.29 98.792,230.957 100.5,233C 98.8925,232.981 97.2259,232.815 95.5,232.5 Z"/></g>
<g><path style="opacity:1" fill="#b8b9bc" d="M 146.5,257.5 C 149.833,258.833 153.167,258.833 156.5,257.5C 156.5,258.167 156.5,258.833 156.5,259.5C 144.372,265.396 132.706,272.063 121.5,279.5C 121.833,279.833 122.167,280.167 122.5,280.5C 123.85,279.05 125.516,278.383 127.5,278.5C 125.505,280.64 123.005,281.973 120,282.5C 119.11,277.264 117.943,272.097 116.5,267C 116.833,266.5 117.167,266 117.5,265.5C 119.833,266.667 122.167,267.833 124.5,269C 125.944,269.781 127.277,269.614 128.5,268.5C 124.361,265.593 120.027,262.926 115.5,260.5C 112.017,255.026 113.017,253.526 118.5,256C 123.802,258.651 129.136,261.318 134.5,264C 135.944,264.781 137.277,264.614 138.5,263.5C 130.437,258.801 122.104,254.467 113.5,250.5C 112.591,248.596 111.591,246.762 110.5,245C 110.833,244.5 111.167,244 111.5,243.5C 121.986,249.472 132.819,254.805 144,259.5C 145.376,259.316 146.209,258.649 146.5,257.5 Z"/></g>
<g><path style="opacity:1" fill="#684c4b" d="M 156.5,259.5 C 158.842,259.775 158.842,260.608 156.5,262C 146.478,267.007 136.811,272.507 127.5,278.5C 125.516,278.383 123.85,279.05 122.5,280.5C 122.167,280.167 121.833,279.833 121.5,279.5C 132.706,272.063 144.372,265.396 156.5,259.5 Z"/></g>
<g><path style="opacity:1" fill="#bd9694" d="M 127.5,278.5 C 136.811,272.507 146.478,267.007 156.5,262C 158.842,260.608 158.842,259.775 156.5,259.5C 156.5,258.833 156.5,258.167 156.5,257.5C 159.579,257.74 162.579,257.407 165.5,256.5C 166.696,256.846 166.696,257.346 165.5,258C 153.151,265.539 140.484,272.372 127.5,278.5 Z"/></g>
<g><path style="opacity:1" fill="#d1c9cd" d="M 183.5,250.5 C 182.167,251.933 180.667,253.267 179,254.5C 178.79,256.058 178.29,257.391 177.5,258.5C 177.719,257.325 177.386,256.325 176.5,255.5C 161.211,266.363 144.544,276.196 126.5,285C 124.866,285.494 123.199,285.66 121.5,285.5C 136.882,277.331 152.215,268.831 167.5,260C 171.081,254.037 176.414,250.871 183.5,250.5 Z"/></g>
<g><path style="opacity:1" fill="#a69490" d="M 86.5,272.5 C 93.0518,275.055 99.3851,278.055 105.5,281.5C 104.957,281.56 104.624,281.893 104.5,282.5C 105.811,283.258 106.311,284.258 106,285.5C 99.1849,281.194 92.0183,277.528 84.5,274.5C 82.8624,273.343 81.1957,272.176 79.5,271C 81.7567,271.437 84.09,271.937 86.5,272.5 Z"/></g>
<g><path style="opacity:1" fill="#6f4b47" d="M 183.5,250.5 C 186.432,250.284 189.098,250.951 191.5,252.5C 196.36,250.847 201.36,250.18 206.5,250.5C 211.787,251.061 215.62,253.728 218,258.5C 218.667,265.5 218.667,272.5 218,279.5C 216.895,284.206 214.062,287.373 209.5,289C 204.5,289.667 199.5,289.667 194.5,289C 190.117,286.725 187.284,283.225 186,278.5C 182.763,277.052 180.43,274.719 179,271.5C 178.417,267.168 177.917,262.835 177.5,258.5C 178.29,257.391 178.79,256.058 179,254.5C 180.667,253.267 182.167,251.933 183.5,250.5 Z"/></g>
<g><path style="opacity:1" fill="#eedcd6" d="M 215.5,269.5 C 212.253,274.036 207.753,276.036 202,275.5C 195.519,276.298 190.686,273.965 187.5,268.5C 186.712,258.611 191.378,253.278 201.5,252.5C 212.781,252.777 217.448,258.444 215.5,269.5 Z"/></g>
<g><path style="opacity:1" fill="#ead1ca" d="M 183.5,253.5 C 185.288,253.215 186.955,253.548 188.5,254.5C 187.278,256.978 185.278,257.978 182.5,257.5C 182.334,261.514 182.501,265.514 183,269.5C 186.384,275.707 185.717,276.041 181,270.5C 179.743,264.319 180.576,258.652 183.5,253.5 Z"/></g>
<g><path style="opacity:1" fill="#635052" d="M 199.5,254.5 C 204.603,254.019 208.936,255.519 212.5,259C 209.453,257.543 206.119,256.709 202.5,256.5C 199.622,256.386 196.956,257.052 194.5,258.5C 193.707,257.645 194.04,256.811 195.5,256C 197.058,255.79 198.391,255.29 199.5,254.5 Z"/></g>
<g><path style="opacity:1" fill="#e1edf1" d="M 244.5,232.5 C 257.896,236.692 271.229,241.192 284.5,246C 286.134,246.494 287.801,246.66 289.5,246.5C 284.278,247.011 280.278,249.678 277.5,254.5C 267.689,260.31 257.022,263.477 245.5,264C 240.508,266.161 235.841,268.828 231.5,272C 231.448,277.108 231.115,282.274 230.5,287.5C 226.673,292.326 221.673,295.159 215.5,296C 208.144,296.443 200.811,296.11 193.5,295C 186.407,292.484 179.407,289.818 172.5,287C 166.39,281.898 159.39,280.231 151.5,282C 145.609,286.113 139.276,289.446 132.5,292C 125.465,292.587 118.465,292.254 111.5,291C 106.336,287.741 101.003,285.741 95.5,285C 94.8333,283.667 94.1667,282.333 93.5,281C 90.6112,280.111 87.9446,278.778 85.5,277C 84.7476,276.329 84.4142,275.496 84.5,274.5C 92.0183,277.528 99.1849,281.194 106,285.5C 106.311,284.258 105.811,283.258 104.5,282.5C 104.624,281.893 104.957,281.56 105.5,281.5C 110.271,284.924 115.605,286.257 121.5,285.5C 123.199,285.66 124.866,285.494 126.5,285C 144.544,276.196 161.211,266.363 176.5,255.5C 177.386,256.325 177.719,257.325 177.5,258.5C 177.917,262.835 178.417,267.168 179,271.5C 180.43,274.719 182.763,277.052 186,278.5C 187.284,283.225 190.117,286.725 194.5,289C 199.5,289.667 204.5,289.667 209.5,289C 214.062,287.373 216.895,284.206 218,279.5C 218.667,272.5 218.667,265.5 218,258.5C 215.62,253.728 211.787,251.061 206.5,250.5C 205.048,249.698 203.382,249.198 201.5,249C 210.41,245.711 219.41,242.711 228.5,240C 230,238.167 231.5,236.333 233,234.5C 236.816,233.693 240.65,233.026 244.5,232.5 Z"/></g>
<g><path style="opacity:1" fill="#f8f3ef" d="M 214.5,278.5 C 214.451,281.099 213.451,283.266 211.5,285C 205.559,287.994 199.559,288.161 193.5,285.5C 191.33,284.007 189.996,282.007 189.5,279.5C 189.369,278.761 189.536,278.094 190,277.5C 197.936,282.495 206.102,282.829 214.5,278.5 Z"/></g>
<g><path style="opacity:1" fill="#c98474" d="M 187.5,268.5 C 190.686,273.965 195.519,276.298 202,275.5C 207.753,276.036 212.253,274.036 215.5,269.5C 215.81,272.713 215.477,275.713 214.5,278.5C 206.102,282.829 197.936,282.495 190,277.5C 189.536,278.094 189.369,278.761 189.5,279.5C 188.598,276.003 187.931,272.337 187.5,268.5 Z"/></g>
<g><path style="opacity:1" fill="#734742" d="M 191.5,258.5 C 191.929,259.953 192.096,261.619 192,263.5C 196.524,258.322 202.024,257.155 208.5,260C 210,260.833 211.167,262 212,263.5C 212.333,262.5 212.667,261.5 213,260.5C 214.819,264.439 213.986,267.939 210.5,271C 205.589,272.492 200.589,272.826 195.5,272C 189.439,268.848 188.106,264.348 191.5,258.5 Z"/></g>
<g><path style="opacity:1" fill="#7b3e33" d="M 196.5,261.5 C 200.869,262.089 205.202,262.922 209.5,264C 211.831,265.8 211.831,267.8 209.5,270C 205.167,270.667 200.833,270.667 196.5,270C 195.167,269.333 195.167,268.667 196.5,268C 192.79,265.864 192.79,263.698 196.5,261.5 Z"/></g>
</svg>
