<?xml version="1.0" standalone="yes"?>
<svg xmlns="http://www.w3.org/2000/svg" width="43" height="33">
<path style="fill:#ffffff; stroke:none;" d="M0 0L0 33L43 33L43 0L0 0z"/>
<path style="fill:#b66600; stroke:none;" d="M16.3333 5.66667C16.2778 5.72222 16.2222 6.77778 16.6667 6.33333C16.7222 6.27777 16.7778 5.22223 16.3333 5.66667z"/>
<path style="fill:#000000; stroke:none;" d="M17 5C15.2115 6.4215 14.2942 6.69742 12 7L12 9C14.2942 9.30258 15.2115 9.5785 17 11L19 11C21.6546 9.02041 23.3454 9.02041 26 11L28 11C29.7885 9.5785 30.7058 9.30258 33 9L33 7C30.7058 6.69742 29.7885 6.4215 28 5L26 5C23.3454 6.97959 21.6546 6.97959 19 5L17 5z"/>
<path style="fill:#66b6db; stroke:none;" d="M19.3333 5.66667C19.2778 5.72222 19.2222 6.77778 19.6667 6.33333C19.7222 6.27777 19.7778 5.22223 19.3333 5.66667z"/>
<path style="fill:#b66600; stroke:none;" d="M25.3333 5.66667C25.2778 5.72222 25.2222 6.77778 25.6667 6.33333C25.7222 6.27777 25.7778 5.22223 25.3333 5.66667z"/>
<path style="fill:#3a90b6; stroke:none;" d="M28.3333 5.66667C28.2778 5.72222 28.2222 6.77778 28.6667 6.33333C28.7222 6.27777 28.7778 5.22223 28.3333 5.66667z"/>
<path style="fill:#dbdbdb; stroke:none;" d="M12 6C13.506 6.68304 14.3148 6.82589 16 7C14.494 6.31696 13.6852 6.17411 12 6M20 6C21.769 6.77894 23.0359 6.91241 25 7C23.231 6.22106 21.9641 6.08759 20 6M29 6C30.506 6.68304 31.3148 6.82589 33 7C31.494 6.31696 30.6852 6.17411 29 6z"/>
<path style="fill:#db903a; stroke:none;" d="M11.3333 7.66667C11.2778 7.72222 11.2222 8.77778 11.6667 8.33333C11.7222 8.27777 11.7778 7.22222 11.3333 7.66667z"/>
<path style="fill:#3a90db; stroke:none;" d="M33.3333 7.66667C33.2778 7.72223 33.2222 8.77777 33.6667 8.33333C33.7222 8.27778 33.7778 7.22222 33.3333 7.66667z"/>
<path style="fill:#dbb690; stroke:none;" d="M11 9L12 10L11 9z"/>
<path style="fill:#666666; stroke:none;" d="M12 9C13.506 9.68304 14.3148 9.82589 16 10C14.494 9.31696 13.6852 9.17411 12 9z"/>
<path style="fill:#3a3a00; stroke:none;" d="M16 9L17 10L16 9z"/>
<path style="fill:#666666; stroke:none;" d="M19 9C21.0521 9.87425 22.7472 9.95279 25 10C22.9479 9.12575 21.2528 9.04721 19 9z"/>
<path style="fill:#3a3a00; stroke:none;" d="M25 9L26 10L25 9z"/>
<path style="fill:#003a66; stroke:none;" d="M28 9L29 10L28 9z"/>
<path style="fill:#666666; stroke:none;" d="M29 9C30.506 9.68304 31.3148 9.82589 33 10C31.494 9.31696 30.6852 9.17411 29 9z"/>
<path style="fill:#90b6db; stroke:none;" d="M33 9L34 10L33 9z"/>
<path style="fill:#b66600; stroke:none;" d="M16 10L17 11L16 10z"/>
<path style="fill:#66b6ff; stroke:none;" d="M19 10L20 11L19 10z"/>
<path style="fill:#b66600; stroke:none;" d="M25 10L26 11L25 10z"/>
<path style="fill:#3a90db; stroke:none;" d="M28 10L29 11L28 10z"/>
<path style="fill:#b6b6b6; stroke:none;" d="M16 11C17.2484 11.6848 17.5484 11.7488 19 12C17.7516 11.3152 17.4516 11.2512 16 11z"/>
<path style="fill:#db903a; stroke:none;" d="M19.3333 11.6667C19.2778 11.7222 19.2222 12.7778 19.6667 12.3333C19.7222 12.2778 19.7778 11.2222 19.3333 11.6667z"/>
<path style="fill:#000000; stroke:none;" d="M20 11C17.9433 12.5819 16.6125 12.8256 14 13L14 15L20 16L14 26C16.6087 25.2276 18.1117 24.3911 19.564 21.9421C20.5895 20.213 21.1023 17.1195 23.2438 16.3457C25.4619 15.5443 26.6845 18.1539 26.25 19.9614C25.6079 22.6323 23.272 23.3408 21 24L21 26C26.8996 25.8063 27.933 23.6524 28 18C29.6664 19.4464 31.1188 20.8699 33 22L29 13C26.0923 12.9172 24.3079 12.7595 22 11L20 11z"/>
<path style="fill:#3a90db; stroke:none;" d="M22.3333 11.6667C22.2778 11.7222 22.2222 12.7778 22.6667 12.3333C22.7222 12.2778 22.7778 11.2222 22.3333 11.6667z"/>
<path style="fill:#db9066; stroke:none;" d="M25 11L26 12L25 11z"/>
<path style="fill:#666666; stroke:none;" d="M26.6667 11.3333C26.2222 11.7778 27.2778 11.7222 27.3333 11.6667C27.7778 11.2222 26.7222 11.2778 26.6667 11.3333z"/>
<path style="fill:#90b6db; stroke:none;" d="M28 11L29 12L28 11z"/>
<path style="fill:#ffffb6; stroke:none;" d="M12 13L12 16C12.6961 14.4463 12.6961 14.5537 12 13z"/>
<path style="fill:#660000; stroke:none;" d="M13.3333 13.6667C13.2778 13.7222 13.2222 14.7778 13.6667 14.3333C13.7222 14.2778 13.7778 13.2222 13.3333 13.6667z"/>
<path style="fill:#66b6ff; stroke:none;" d="M29 13L29 16C29.6961 14.4463 29.6961 14.5537 29 13z"/>
<path style="fill:#3a3a3a; stroke:none;" d="M13 15C15.0521 15.8742 16.7472 15.9528 19 16C16.9479 15.1258 15.2528 15.0472 13 15M22 15C23.506 15.683 24.3148 15.8259 26 16C24.494 15.317 23.6852 15.1741 22 15z"/>
<path style="fill:#dbb6b6; stroke:none;" d="M14 16L15 17L14 16z"/>
<path style="fill:#ffffff; stroke:none;" d="M15 16C15.7854 18.3336 15.6129 19.5993 15 22C16.8842 20.0197 17.4693 18.6904 18 16L15 16z"/>
<path style="fill:#ffdb90; stroke:none;" d="M18.3333 16.6667C18.2778 16.7222 18.2222 17.7778 18.6667 17.3333C18.7222 17.2778 18.7778 16.2222 18.3333 16.6667z"/>
<path style="fill:#3a0000; stroke:none;" d="M19.3333 16.6667C19.2778 16.7222 19.2222 17.7778 19.6667 17.3333C19.7222 17.2778 19.7778 16.2222 19.3333 16.6667z"/>
<path style="fill:#000066; stroke:none;" d="M21.3333 16.6667C21.2778 16.7222 21.2222 17.7778 21.6667 17.3333C21.7222 17.2778 21.7778 16.2222 21.3333 16.6667z"/>
<path style="fill:#b6ffff; stroke:none;" d="M22.3333 16.6667C22.2778 16.7222 22.2222 17.7778 22.6667 17.3333C22.7222 17.2778 22.7778 16.2222 22.3333 16.6667z"/>
<path style="fill:#ffffff; stroke:none;" d="M23 16L20 23L24 24C24.8965 21.3624 25.4694 18.7377 26 16L23 16z"/>
<path style="fill:#903a00; stroke:none;" d="M26.3333 16.6667C26.2778 16.7222 26.2222 17.7778 26.6667 17.3333C26.7222 17.2778 26.7778 16.2222 26.3333 16.6667z"/>
<path style="fill:#6690b6; stroke:none;" d="M29 16L30 17L29 16z"/>
<path style="fill:#663a3a; stroke:none;" d="M30 16L31 17L30 16z"/>
<path style="fill:#3a90db; stroke:none;" d="M31 16L32 17L31 16z"/>
<path style="fill:#ffb666; stroke:none;" d="M13 17L14 18L13 17z"/>
<path style="fill:#000000; stroke:none;" d="M14 17C13.3005 18.9583 13.0607 19.9495 13 22C14.5034 20.3369 15.1986 19.104 16 17L14 17z"/>
<path style="fill:#66b6ff; stroke:none;" d="M16.3333 17.6667C16.2778 17.7222 16.2222 18.7778 16.6667 18.3333C16.7222 18.2778 16.7778 17.2222 16.3333 17.6667z"/>
<path style="fill:#000066; stroke:none;" d="M31 17L32 18L31 17z"/>
<path style="fill:#b6ffff; stroke:none;" d="M32 17L33 18L32 17z"/>
<path style="fill:#ffffb6; stroke:none;" d="M12 18L13 19L12 18z"/>
<path style="fill:#660000; stroke:none;" d="M13 18L14 19L13 18z"/>
<path style="fill:#db903a; stroke:none;" d="M18 18L19 19L18 18z"/>
<path style="fill:#0066b6; stroke:none;" d="M21 18L22 19L21 18z"/>
<path style="fill:#ffffb6; stroke:none;" d="M25 18L25 22C25.7102 20.2405 25.7102 19.7595 25 18z"/>
<path style="fill:#660000; stroke:none;" d="M26 18L26 22C26.7102 20.2405 26.7102 19.7595 26 18z"/>
<path style="fill:#00003a; stroke:none;" d="M28 18L28 21C28.6961 19.4463 28.6961 19.5537 28 18z"/>
<path style="fill:#66663a; stroke:none;" d="M29 18L30 19L29 18z"/>
<path style="fill:#3a90db; stroke:none;" d="M32 18L33 19L32 18z"/>
<path style="fill:#b66600; stroke:none;" d="M12 19L13 20L12 19z"/>
<path style="fill:#0066b6; stroke:none;" d="M15 19L16 20L15 19z"/>
<path style="fill:#ffffb6; stroke:none;" d="M17 19L18 20L17 19z"/>
<path style="fill:#660000; stroke:none;" d="M18 19L19 20L18 19z"/>
<path style="fill:#66b6ff; stroke:none;" d="M21 19L22 20L21 19z"/>
<path style="fill:#90b690; stroke:none;" d="M29 19L30 20L29 19z"/>
<path style="fill:#003a90; stroke:none;" d="M32 19L33 20L32 19z"/>
<path style="fill:#db903a; stroke:none;" d="M11 20L12 21L11 20z"/>
<path style="fill:#000066; stroke:none;" d="M14 20L15 21L14 20z"/>
<path style="fill:#b6ffff; stroke:none;" d="M15 20L16 21L15 20z"/>
<path style="fill:#b66600; stroke:none;" d="M17 20L18 21L17 20z"/>
<path style="fill:#000066; stroke:none;" d="M20 20L21 21L20 20z"/>
<path style="fill:#b6ffff; stroke:none;" d="M21 20L22 21L21 20M29 20L29 23C29.6961 21.4463 29.6961 21.5537 29 20z"/>
<path style="fill:#b66600; stroke:none;" d="M30 20L31 21L30 20z"/>
<path style="fill:#66b6ff; stroke:none;" d="M33 20L34 21L33 20z"/>
<path style="fill:#903a00; stroke:none;" d="M12 21L13 22L12 21z"/>
<path style="fill:#66b6ff; stroke:none;" d="M14 21L15 22L14 21z"/>
<path style="fill:#dbb666; stroke:none;" d="M16 21L17 22L16 21z"/>
<path style="fill:#3a90db; stroke:none;" d="M20 21L21 22L20 21z"/>
<path style="fill:#000066; stroke:none;" d="M28 21L28 24C28.6961 22.4463 28.6961 22.5537 28 21z"/>
<path style="fill:#ffb666; stroke:none;" d="M30 21L31 22L30 21z"/>
<path style="fill:#0066b6; stroke:none;" d="M33 21L34 22L33 21z"/>
<path style="fill:#dbb666; stroke:none;" d="M15 22L16 23L15 22z"/>
<path style="fill:#003a90; stroke:none;" d="M19 22L20 23L19 22z"/>
<path style="fill:#ffb666; stroke:none;" d="M25 22L26 23L25 22z"/>
<path style="fill:#ffffb6; stroke:none;" d="M30 22L31 23L30 22z"/>
<path style="fill:#66003a; stroke:none;" d="M31 22L32 23L31 22z"/>
<path style="fill:#6690b6; stroke:none;" d="M32 22L33 23L32 22z"/>
<path style="fill:#b6663a; stroke:none;" d="M14 23L15 24L14 23z"/>
<path style="fill:#90dbff; stroke:none;" d="M19 23L20 24L19 23z"/>
<path style="fill:#b6b6b6; stroke:none;" d="M20 23C21.2484 23.6848 21.5484 23.7488 23 24C21.7516 23.3152 21.4516 23.2512 20 23z"/>
<path style="fill:#b69066; stroke:none;" d="M24 23L25 24L24 23z"/>
<path style="fill:#ffdbb6; stroke:none;" d="M12 24L13 25L12 24z"/>
<path style="fill:#663a00; stroke:none;" d="M13 24L14 25L13 24z"/>
<path style="fill:#66b6ff; stroke:none;" d="M18 24L19 25L18 24z"/>
<path style="fill:#ffb666; stroke:none;" d="M20 24L20 27C20.6961 25.4463 20.6961 25.5537 20 24z"/>
<path style="fill:#66b6ff; stroke:none;" d="M28 24L29 25L28 24z"/>
<path style="fill:#dbb666; stroke:none;" d="M13 25L14 26L13 25z"/>
<path style="fill:#66b6ff; stroke:none;" d="M17 25L18 26L17 25z"/>
<path style="fill:#0066b6; stroke:none;" d="M27 25L28 26L27 25z"/>
<path style="fill:#db903a; stroke:none;" d="M14 26L15 27L14 26z"/>
<path style="fill:#003a66; stroke:none;" d="M15 26L16 27L15 26z"/>
<path style="fill:#b6dbff; stroke:none;" d="M16 26L17 27L16 26z"/>
<path style="fill:#3a3a3a; stroke:none;" d="M21 26C22.769 26.7789 24.0359 26.9124 26 27C24.231 26.2211 22.9641 26.0876 21 26z"/>
<path style="fill:#90b6db; stroke:none;" d="M26 26L27 27L26 26z"/>
</svg>
